<svg xmlns="http://www.w3.org/2000/svg" viewBox="90 20 180 180" width="32" height="32">
  <rect x="90" y="20" width="180" height="180" rx="40" fill="#faf9f5" />
  <path fill="#141413" transform="matrix(0.955357 0 0 0.956667 1.90735e-06 -426.673)" d="M203.894 476.839C224.571 474.725 237.632 489.516 233.733 509.995C230.243 528.327 209.846 539.496 195.167 549.053C196.896 562.784 200.374 576.797 202.588 590.505C203.648 597.067 205.042 604.117 206.69 610.542C210.942 577.806 232.776 552.433 267.205 551.34L267.194 561.783C220.864 563.714 214.324 611.936 212.619 648.252L202.122 648.29C200.903 641.903 199.722 635.509 198.577 629.108C194.96 610.46 192.068 591.59 188.34 572.946C187.239 567.444 186.159 561.734 185.34 556.198C174.778 567.257 173.837 576.089 169.128 589.927C157.992 622.648 146.991 643.945 109.721 647.745L109.661 637.232C114.893 636.583 118.586 636.028 123.702 634.471C151.497 624.619 161.932 580.728 167.654 555.708C174.119 527.444 170.782 488.133 203.894 476.839ZM190.916 538.58C202.868 531.59 219.531 521.955 223.431 507.967C226.551 496.776 219.094 488.175 208.04 487.334C185.525 493.827 182.87 526 180.543 545.845C183.985 543.401 187.443 540.979 190.916 538.58Z" />
</svg>
